<svg width="26" height="26" viewBox="0 0 26 26" fill="none" xmlns="http://www.w3.org/2000/svg">
<path d="M11.8705 1.28943C12.5741 0.903524 13.4259 0.903524 14.1295 1.28943L16.9364 2.82906C17.0862 2.91122 17.2445 2.97679 17.4085 3.02461L20.482 3.92071C21.2523 4.14532 21.8547 4.74768 22.0793 5.51804L22.9754 8.59151C23.0232 8.75552 23.0888 8.91382 23.1709 9.06361L24.7106 11.8705C25.0965 12.5741 25.0965 13.4259 24.7106 14.1295L23.1709 16.9364C23.0888 17.0862 23.0232 17.2445 22.9754 17.4085L22.0793 20.482C21.8547 21.2523 21.2523 21.8547 20.482 22.0793L17.4085 22.9754C17.2445 23.0232 17.0862 23.0888 16.9364 23.1709L14.1295 24.7106C13.4259 25.0965 12.5741 25.0965 11.8705 24.7106L9.06361 23.1709C8.91382 23.0888 8.75552 23.0232 8.59151 22.9754L5.51804 22.0793C4.74768 21.8547 4.14532 21.2523 3.92071 20.482L3.02461 17.4085C2.97679 17.2445 2.91122 17.0862 2.82906 16.9364L1.28943 14.1295C0.903524 13.4259 0.903524 12.5741 1.28943 11.8705L2.82906 9.06361C2.91122 8.91382 2.97679 8.75552 3.02461 8.59151L3.92071 5.51804C4.14532 4.74768 4.74768 4.14532 5.51804 3.92071L8.59151 3.02461C8.75552 2.97679 8.91382 2.91122 9.06361 2.82906L11.8705 1.28943Z" stroke="black" stroke-width="2" stroke-linejoin="round"/>
</svg>
