<svg width="28" height="25" viewBox="0 0 28 25" fill="none" xmlns="http://www.w3.org/2000/svg">
<path d="M12.5572 2.04823C13.0114 0.650594 14.9886 0.65059 15.4428 2.04822L17.2356 7.566C17.4387 8.19104 18.0211 8.61423 18.6783 8.61423H24.4801C25.9496 8.61423 26.5607 10.4947 25.3718 11.3585L20.6781 14.7687C20.1464 15.155 19.9239 15.8397 20.127 16.4648L21.9198 21.9825C22.3739 23.3802 20.7743 24.5424 19.5854 23.6786L14.8917 20.2684C14.36 19.8821 13.64 19.8821 13.1083 20.2684L8.41462 23.6786C7.22573 24.5424 5.62607 23.3802 6.08019 21.9825L7.87303 16.4648C8.07612 15.8397 7.85363 15.155 7.32194 14.7687L2.62824 11.3585C1.43934 10.4947 2.05035 8.61423 3.51991 8.61423H9.32165C9.97885 8.61423 10.5613 8.19105 10.7644 7.56601L12.5572 2.04823Z" fill="black" stroke="black" stroke-width="2" stroke-linejoin="round"/>
</svg>
