<svg width="29" height="29" viewBox="0 0 29 29" fill="none" xmlns="http://www.w3.org/2000/svg">
<path d="M3 1H9C10.1046 1 11 1.89543 11 3V9C11 10.1046 10.1046 11 9 11H3C1.89543 11 1 10.1046 1 9V3C1 1.89543 1.89543 1 3 1ZM20 1H26C27.1046 1 28 1.89543 28 3V9C28 10.1046 27.1046 11 26 11H20C18.8954 11 18 10.1046 18 9V3C18 1.89543 18.8954 1 20 1ZM20 18H26C27.1046 18 28 18.8954 28 20V26C28 27.1046 27.1046 28 26 28H20C18.8954 28 18 27.1046 18 26V20C18 18.8954 18.8954 18 20 18ZM3 18H9C10.1046 18 11 18.8954 11 20V26C11 27.1046 10.1046 28 9 28H3C1.89543 28 1 27.1046 1 26V20C1 18.8954 1.89543 18 3 18Z" stroke="black" stroke-width="2"/>
</svg>
