<svg width="26" height="26" viewBox="0 0 26 26" fill="none" xmlns="http://www.w3.org/2000/svg">
<path d="M10.7654 2.75529C11.3359 0.414905 14.6641 0.414904 15.2346 2.75529C15.603 4.26685 17.3347 4.98411 18.664 4.17582C20.7223 2.92433 23.0757 5.27766 21.8242 7.33597C21.0159 8.66535 21.7332 10.397 23.2447 10.7654C25.5851 11.3359 25.5851 14.6641 23.2447 15.2346C21.7332 15.603 21.0159 17.3347 21.8242 18.664C23.0757 20.7223 20.7223 23.0757 18.664 21.8242C17.3347 21.0159 15.603 21.7332 15.2346 23.2447C14.6641 25.5851 11.3359 25.5851 10.7654 23.2447C10.397 21.7332 8.66535 21.0159 7.33597 21.8242C5.27766 23.0757 2.92433 20.7223 4.17582 18.664C4.98411 17.3347 4.26685 15.603 2.75529 15.2346C0.414905 14.6641 0.414904 11.3359 2.75529 10.7654C4.26685 10.397 4.98411 8.66535 4.17582 7.33597C2.92433 5.27766 5.27766 2.92433 7.33597 4.17582C8.66535 4.98411 10.397 4.26685 10.7654 2.75529Z" stroke="black" stroke-width="2" stroke-linejoin="round"/>
</svg>
