<svg width="26" height="26" viewBox="0 0 26 26" fill="none" xmlns="http://www.w3.org/2000/svg">
<path d="M13 1L13.2545 6.96977C13.3373 8.91177 15.6523 9.8707 17.0841 8.55604L21.4853 4.51472L17.444 8.91593C16.1293 10.3477 17.0882 12.6627 19.0302 12.7455L25 13L19.0302 13.2545C17.0882 13.3373 16.1293 15.6523 17.444 17.0841L21.4853 21.4853L17.0841 17.444C15.6523 16.1293 13.3373 17.0882 13.2545 19.0302L13 25L12.7455 19.0302C12.6627 17.0882 10.3477 16.1293 8.91593 17.444L4.51472 21.4853L8.55604 17.0841C9.8707 15.6523 8.91177 13.3373 6.96977 13.2545L1 13L6.96977 12.7455C8.91177 12.6627 9.8707 10.3477 8.55604 8.91593L4.51472 4.51472L8.91593 8.55604C10.3477 9.8707 12.6627 8.91176 12.7455 6.96977L13 1Z" stroke="black" stroke-width="2" stroke-linejoin="round"/>
</svg>
